<svg xmlns="http://www.w3.org/2000/svg" xmlns:xlink="http://www.w3.org/1999/xlink" width="50" zoomAndPan="magnify" viewBox="0 0 37.5 37.499999" height="50" preserveAspectRatio="xMidYMid meet" version="1.0"><path fill="#ffffff" d="M 32.957031 25.71875 C 32.15625 27.492188 31.773438 28.285156 30.746094 29.847656 C 29.308594 32.035156 27.285156 34.761719 24.78125 34.78125 C 22.550781 34.800781 21.976562 33.324219 18.949219 33.351562 C 15.925781 33.367188 15.292969 34.808594 13.0625 34.785156 C 10.554688 34.761719 8.640625 32.304688 7.203125 30.121094 C 3.183594 24.003906 2.757812 16.828125 5.242188 13.011719 C 7 10.304688 9.777344 8.714844 12.386719 8.714844 C 15.046875 8.714844 16.71875 10.175781 18.917969 10.175781 C 21.050781 10.175781 22.347656 8.710938 25.425781 8.710938 C 27.75 8.710938 30.207031 9.976562 31.964844 12.164062 C 26.21875 15.3125 27.152344 23.523438 32.957031 25.71875 Z M 23.089844 6.269531 C 24.207031 4.832031 25.058594 2.804688 24.75 0.738281 C 22.925781 0.863281 20.789062 2.03125 19.542969 3.539062 C 18.414062 4.914062 17.476562 6.957031 17.839844 8.929688 C 19.832031 8.996094 21.894531 7.804688 23.089844 6.269531 Z M 23.089844 6.269531 " fill-opacity="1" fill-rule="nonzero"/></svg>